# xmcd
#
# Track frame offsets:
#        150
#        19529
#        36328
#        55894
#        81991
#        102411
#        122173
#        136176
#        151439
#        170316
#        188678
#        216956
#        233503
#        254806
#        269133
#        295714
#
# Disc length: 3957 seconds
#
# Revision: 0
# Processed by: cddbd v1.5.2PL0 Copyright (c) Steve Scherf et al.
# Submitted via: CDGFix 3.7i
#
DISCID=e70f7310
DTITLE=Martina McBride - CB90271
DYEAR=1900
DGENRE=Karaoke
TTITLE0=Martina McBride - This One's For The Girls
TTITLE1=Martina McBride - When God Fearing Women Get The Blues
TTITLE2=Martina McBride - Concrete Angel
TTITLE3=Martina McBride - Love's The Only House
TTITLE4=Martina McBride - Where Would You Be
TTITLE5=Martina McBride - Blessed
TTITLE6=Martina McBride - I Love You
TTITLE7=Martina McBride - In My Daughter's Eyes
TTITLE8=Martina McBride - Whatever You Say
TTITLE9=Martina McBride - How Far
TTITLE10=Martina McBride - God's Will
TTITLE11=Martina McBride - There You Are
TTITLE12=Martina McBride - When You Love Me
TTITLE13=Martina McBride - City Of Love
TTITLE14=Martina McBride - Over The Rainbow
TTITLE15=DATA - DATA Track
EXTD=
EXTT0=
EXTT1=
EXTT2=
EXTT3=
EXTT4=
EXTT5=
EXTT6=
EXTT7=
EXTT8=
EXTT9=
EXTT10=
EXTT11=
EXTT12=
EXTT13=
EXTT14=
EXTT15=
PLAYORDER=
